<svg width="1840" height="267" viewBox="0 0 1840 267" fill="none" xmlns="http://www.w3.org/2000/svg">
<g clip-path="url(#clip0_1_2)">
<path d="M461.808 222C499.916 222 530.808 191.108 530.808 153C530.808 114.892 499.916 84 461.808 84C423.7 84 392.808 114.892 392.808 153C392.808 191.108 423.7 222 461.808 222Z" fill="#F5F5F5"/>
<path d="M750.133 222C788.24 222 819.133 191.108 819.133 153C819.133 114.892 788.24 84 750.133 84C712.025 84 681.133 114.892 681.133 153C681.133 191.108 712.025 222 750.133 222Z" fill="#F5F5F5"/>
<path d="M1038.46 222C1076.57 222 1107.46 191.108 1107.46 153C1107.46 114.892 1076.57 84 1038.46 84C1000.36 84 969.465 114.892 969.465 153C969.465 191.108 1000.36 222 1038.46 222Z" fill="#F5F5F5"/>
<path d="M1326.79 222C1364.9 222 1395.79 191.108 1395.79 153C1395.79 114.892 1364.9 84 1326.79 84C1288.68 84 1257.79 114.892 1257.79 153C1257.79 191.108 1288.68 222 1326.79 222Z" fill="#FADE2A"/>
<path d="M1423.25 58.6234L1411.68 68.7856" stroke="#231F20" stroke-width="1.39986" stroke-miterlimit="1.5" stroke-linecap="round" stroke-linejoin="round"/>
<path d="M1377.84 32.6809L1380.42 58.489M1423.36 1.33301L1397.27 62.2141M1465.23 68.7019L1423.23 81.925" stroke="#231F20" stroke-width="1.62946" stroke-miterlimit="1.5" stroke-linecap="round" stroke-linejoin="round"/>
<path d="M450.497 142.31V131.11H470.517V180.6H457.917V142.31H450.497ZM430.58 258.221H425.28L424.4 260.801H420.8L425.98 246.761H429.92L435.1 260.801H431.46L430.58 258.221V258.221ZM429.7 255.621L427.94 250.421L426.16 255.621H429.7V255.621ZM443.5 249.52C444.78 249.52 445.8 249.94 446.56 250.801C447.352 251.798 447.75 253.05 447.68 254.321V260.801H444.26V254.721C444.293 254.082 444.086 253.455 443.68 252.961C443.476 252.751 443.229 252.588 442.957 252.481C442.684 252.374 442.392 252.326 442.1 252.341C441.795 252.325 441.491 252.376 441.207 252.49C440.924 252.604 440.669 252.778 440.46 253.001C440.04 253.441 439.84 254.061 439.84 254.881V260.801H436.42V249.641H439.84V251.681C440.152 251.023 440.653 250.473 441.28 250.101C441.951 249.703 442.72 249.502 443.5 249.521V249.52ZM454.18 249.5C455.04 249.5 455.76 249.7 456.38 250.08C456.984 250.456 457.459 251.007 457.74 251.661V249.641H461.14V260.801H457.74V258.781C457.459 259.434 456.984 259.986 456.38 260.361C455.716 260.758 454.953 260.959 454.18 260.941C453.297 260.956 452.429 260.71 451.685 260.233C450.941 259.756 450.355 259.07 450 258.261C449.558 257.31 449.339 256.27 449.36 255.221C449.36 254.041 449.58 253.021 450 252.161C450.356 251.354 450.943 250.671 451.687 250.197C452.431 249.724 453.298 249.481 454.18 249.501V249.5ZM455.28 252.501C454.952 252.486 454.625 252.543 454.321 252.667C454.017 252.791 453.743 252.98 453.52 253.221C453.06 253.701 452.84 254.361 452.84 255.221C452.84 256.081 453.06 256.741 453.52 257.221C453.743 257.462 454.017 257.651 454.321 257.775C454.625 257.899 454.952 257.956 455.28 257.941C455.612 257.952 455.943 257.892 456.25 257.765C456.558 257.637 456.834 257.445 457.06 257.201C457.534 256.654 457.778 255.944 457.74 255.221C457.781 254.491 457.537 253.774 457.06 253.221C456.83 252.983 456.553 252.796 456.247 252.672C455.94 252.548 455.611 252.49 455.28 252.501V252.501ZM463.5 246H466.92V260.801H463.5V246ZM471.86 249.64L474.54 256.481L477.04 249.641H480.82L473.86 266.121H470.1L472.72 260.381L468.04 249.641H471.86V249.64ZM484.98 257.941H490.14V260.801H481.24V258.101L486.04 252.481H481.32V249.641H489.94V252.341L484.98 257.941ZM502.36 254.921C502.353 255.23 502.32 255.538 502.26 255.841H494.52C494.56 256.681 494.78 257.281 495.16 257.641C495.356 257.83 495.588 257.977 495.842 258.073C496.097 258.17 496.368 258.213 496.64 258.201C497.091 258.22 497.535 258.086 497.9 257.821C498.227 257.581 498.461 257.235 498.56 256.841H502.18C502.044 257.611 501.713 258.334 501.22 258.941C500.719 259.571 500.074 260.071 499.34 260.401C498.545 260.769 497.677 260.954 496.8 260.941C495.789 260.959 494.791 260.718 493.9 260.241C493.05 259.797 492.353 259.107 491.9 258.261C491.403 257.326 491.155 256.279 491.18 255.221C491.153 254.156 491.401 253.102 491.9 252.161C492.356 251.324 493.043 250.637 493.88 250.181C494.781 249.713 495.785 249.479 496.8 249.501C497.815 249.477 498.82 249.711 499.72 250.181C500.538 250.619 501.216 251.278 501.68 252.081C502.148 252.953 502.382 253.931 502.36 254.921V254.921ZM498.9 254.401C498.92 253.661 498.72 253.121 498.32 252.741C497.898 252.378 497.356 252.186 496.8 252.201C496.228 252.181 495.669 252.382 495.24 252.761C494.82 253.141 494.6 253.681 494.54 254.401H498.9V254.401ZM718.902 255.841V260.801H715.482V246.661H721.022C722.702 246.661 723.982 247.081 724.862 247.901C725.307 248.34 725.655 248.867 725.883 249.45C726.11 250.032 726.213 250.656 726.182 251.281C726.182 252.161 725.982 252.941 725.602 253.621C725.196 254.33 724.581 254.895 723.842 255.241C722.963 255.663 721.996 255.868 721.022 255.841H718.902ZM720.642 253.101C722.022 253.101 722.702 252.501 722.702 251.281C722.702 250.041 722.022 249.421 720.642 249.421H718.902V253.101H720.642V253.101ZM738.962 249.64V260.801H735.522V258.781C735.21 259.428 734.717 259.97 734.102 260.341C733.429 260.733 732.661 260.933 731.882 260.921C731.312 260.95 730.742 260.85 730.216 260.628C729.69 260.406 729.22 260.069 728.842 259.641C728.035 258.652 727.628 257.396 727.702 256.121V249.641H731.102V255.701C731.102 256.461 731.302 257.041 731.702 257.461C731.904 257.675 732.149 257.843 732.422 257.954C732.695 258.064 732.988 258.115 733.282 258.101C733.587 258.117 733.892 258.066 734.175 257.952C734.458 257.838 734.713 257.664 734.922 257.441C735.322 257.001 735.522 256.381 735.522 255.561V249.641H738.962V249.64ZM748.282 249.5C749.202 249.5 750.022 249.72 750.762 250.18C751.5 250.677 752.094 251.36 752.482 252.161C752.92 253.12 753.132 254.167 753.102 255.221C753.102 256.381 752.902 257.401 752.482 258.261C752.217 258.835 751.837 259.348 751.365 259.769C750.893 260.189 750.34 260.508 749.739 260.705C749.139 260.902 748.504 260.973 747.875 260.914C747.246 260.855 746.635 260.667 746.082 260.361C745.479 259.99 745.01 259.436 744.742 258.781V260.801H741.322V246.001H744.742V251.661C745.01 251.006 745.479 250.452 746.082 250.081C746.746 249.684 747.509 249.483 748.282 249.501V249.5ZM747.182 252.501C746.854 252.489 746.528 252.546 746.224 252.671C745.921 252.795 745.647 252.982 745.422 253.221C744.939 253.772 744.689 254.489 744.722 255.221C744.69 255.947 744.94 256.657 745.422 257.201C745.643 257.446 745.915 257.64 746.219 257.768C746.523 257.896 746.852 257.955 747.182 257.941C747.513 257.954 747.843 257.896 748.149 257.772C748.456 257.648 748.733 257.46 748.962 257.221C749.43 256.664 749.667 255.948 749.622 255.221C749.667 254.494 749.43 253.778 748.962 253.221C748.733 252.982 748.456 252.794 748.149 252.67C747.843 252.546 747.513 252.488 747.182 252.501V252.501ZM754.882 246H758.302V260.801H754.882V246ZM760.342 246.5C760.342 245.98 760.522 245.54 760.902 245.2C761.313 244.849 761.843 244.67 762.382 244.7C763.002 244.7 763.482 244.86 763.862 245.2C764.045 245.362 764.191 245.563 764.288 245.787C764.384 246.012 764.43 246.255 764.422 246.5C764.428 246.738 764.382 246.975 764.285 247.193C764.188 247.411 764.043 247.605 763.862 247.76C763.662 247.94 763.428 248.079 763.174 248.168C762.92 248.257 762.651 248.295 762.382 248.28C762.113 248.295 761.844 248.257 761.59 248.168C761.336 248.079 761.102 247.94 760.902 247.76C760.72 247.605 760.576 247.411 760.479 247.193C760.383 246.975 760.335 246.738 760.342 246.5V246.5ZM764.082 249.64V260.801H760.662V249.641H764.082V249.64ZM770.502 249.5C771.725 249.442 772.929 249.818 773.902 250.56C774.746 251.276 775.306 252.269 775.482 253.361H772.282C772.207 252.94 771.988 252.558 771.662 252.281C771.305 252.016 770.867 251.882 770.422 251.901C770.11 251.88 769.8 251.965 769.542 252.141C769.442 252.232 769.364 252.343 769.312 252.468C769.26 252.592 769.236 252.726 769.242 252.861C769.242 253.201 769.422 253.461 769.802 253.641C770.355 253.874 770.932 254.048 771.522 254.161C772.382 254.361 773.082 254.561 773.622 254.761C774.169 254.984 774.656 255.334 775.042 255.781C775.464 256.314 775.677 256.982 775.642 257.661C775.642 258.301 775.462 258.861 775.122 259.361C774.746 259.886 774.225 260.289 773.622 260.521C772.885 260.817 772.096 260.96 771.302 260.941C770.019 261.002 768.751 260.652 767.682 259.941C767.227 259.601 766.845 259.172 766.56 258.68C766.275 258.189 766.092 257.645 766.022 257.081H769.322C769.339 257.298 769.404 257.509 769.511 257.699C769.618 257.889 769.765 258.054 769.942 258.181C770.341 258.454 770.819 258.587 771.302 258.561C771.62 258.58 771.934 258.481 772.182 258.281C772.281 258.194 772.36 258.086 772.412 257.965C772.464 257.844 772.488 257.713 772.482 257.581C772.482 257.201 772.302 256.921 771.942 256.741C771.358 256.517 770.756 256.343 770.142 256.221C769.45 256.08 768.769 255.893 768.102 255.661C767.562 255.464 767.086 255.126 766.722 254.681C766.312 254.166 766.105 253.518 766.142 252.861C766.129 252.394 766.225 251.93 766.423 251.506C766.621 251.082 766.915 250.711 767.282 250.421C768.217 249.752 769.355 249.427 770.502 249.501V249.5ZM784.622 249.52C785.902 249.52 786.922 249.94 787.682 250.801C788.474 251.798 788.872 253.05 788.802 254.321V260.801H785.382V254.721C785.415 254.082 785.208 253.455 784.802 252.961C784.598 252.751 784.351 252.588 784.079 252.481C783.806 252.374 783.514 252.326 783.222 252.341C782.917 252.325 782.612 252.376 782.329 252.49C782.046 252.604 781.791 252.778 781.582 253.001C781.162 253.441 780.962 254.061 780.962 254.881V260.801H777.542V246.001H780.962V251.681C781.274 251.023 781.775 250.473 782.402 250.101C783.073 249.703 783.842 249.502 784.622 249.521V249.52Z" fill="#231F20"/>
<path d="M1004.39 249.38V252.341H1009.17V254.921H1004.39V258.061H1009.77V260.801H1000.97V246.661H1009.77V249.381H1004.39V249.38ZM1018.79 249.52C1020.07 249.52 1021.09 249.94 1021.85 250.801C1022.64 251.798 1023.04 253.05 1022.97 254.321V260.801H1019.55V254.721C1019.58 254.082 1019.38 253.455 1018.97 252.961C1018.77 252.751 1018.52 252.588 1018.25 252.481C1017.97 252.374 1017.68 252.326 1017.39 252.341C1017.09 252.325 1016.78 252.376 1016.5 252.49C1016.21 252.604 1015.96 252.778 1015.75 253.001C1015.33 253.441 1015.13 254.061 1015.13 254.881V260.801H1011.71V249.641H1015.13V251.681C1015.44 251.023 1015.94 250.473 1016.57 250.101C1017.24 249.703 1018.01 249.502 1018.79 249.521V249.52ZM1029.47 249.5C1030.33 249.5 1031.05 249.7 1031.67 250.08C1032.27 250.456 1032.75 251.007 1033.03 251.661V249.641H1036.43V260.741C1036.43 261.781 1036.23 262.721 1035.83 263.561C1035.42 264.386 1034.78 265.074 1033.99 265.541C1033.05 266.066 1031.99 266.322 1030.91 266.281C1029.48 266.353 1028.06 265.937 1026.89 265.101C1026.39 264.708 1025.97 264.219 1025.66 263.663C1025.34 263.107 1025.14 262.494 1025.07 261.861H1028.45C1028.55 262.321 1028.81 262.661 1029.19 262.921C1029.63 263.196 1030.15 263.329 1030.67 263.301C1031.37 263.301 1031.95 263.101 1032.39 262.701C1032.81 262.281 1033.03 261.641 1033.03 260.741V258.781C1032.75 259.434 1032.27 259.986 1031.67 260.361C1031.01 260.758 1030.24 260.959 1029.47 260.941C1028.59 260.956 1027.72 260.71 1026.97 260.233C1026.23 259.756 1025.64 259.07 1025.29 258.261C1024.85 257.31 1024.63 256.27 1024.65 255.221C1024.65 254.041 1024.87 253.021 1025.29 252.161C1025.65 251.354 1026.23 250.671 1026.98 250.197C1027.72 249.724 1028.59 249.481 1029.47 249.501V249.5ZM1030.57 252.501C1030.24 252.486 1029.91 252.543 1029.61 252.667C1029.31 252.791 1029.03 252.98 1028.81 253.221C1028.35 253.701 1028.13 254.361 1028.13 255.221C1028.13 256.081 1028.35 256.741 1028.81 257.221C1029.03 257.462 1029.31 257.651 1029.61 257.775C1029.91 257.899 1030.24 257.956 1030.57 257.941C1030.9 257.952 1031.23 257.892 1031.54 257.765C1031.85 257.637 1032.12 257.445 1032.35 257.201C1032.82 256.654 1033.07 255.944 1033.03 255.221C1033.07 254.491 1032.83 253.774 1032.35 253.221C1032.12 252.983 1031.84 252.796 1031.54 252.672C1031.23 252.548 1030.9 252.49 1030.57 252.501V252.501ZM1043.03 249.5C1043.89 249.5 1044.61 249.7 1045.23 250.08C1045.83 250.456 1046.31 251.007 1046.59 251.661V249.641H1049.99V260.801H1046.59V258.781C1046.31 259.434 1045.83 259.986 1045.23 260.361C1044.57 260.758 1043.8 260.959 1043.03 260.941C1042.15 260.956 1041.28 260.71 1040.53 260.233C1039.79 259.756 1039.2 259.07 1038.85 258.261C1038.41 257.31 1038.19 256.27 1038.21 255.221C1038.21 254.041 1038.43 253.021 1038.85 252.161C1039.21 251.354 1039.79 250.671 1040.54 250.197C1041.28 249.724 1042.15 249.481 1043.03 249.501V249.5ZM1044.13 252.501C1043.8 252.486 1043.47 252.543 1043.17 252.667C1042.87 252.791 1042.59 252.98 1042.37 253.221C1041.91 253.701 1041.69 254.361 1041.69 255.221C1041.69 256.081 1041.91 256.741 1042.37 257.221C1042.59 257.462 1042.87 257.651 1043.17 257.775C1043.47 257.899 1043.8 257.956 1044.13 257.941C1044.46 257.952 1044.79 257.892 1045.1 257.765C1045.41 257.637 1045.68 257.445 1045.91 257.201C1046.38 256.654 1046.63 255.944 1046.59 255.221C1046.63 254.491 1046.39 253.774 1045.91 253.221C1045.68 252.983 1045.4 252.796 1045.1 252.672C1044.79 252.548 1044.46 252.49 1044.13 252.501V252.501ZM1056.59 249.5C1057.45 249.5 1058.17 249.7 1058.79 250.08C1059.39 250.456 1059.87 251.007 1060.15 251.661V249.641H1063.55V260.741C1063.55 261.781 1063.35 262.721 1062.95 263.561C1062.54 264.386 1061.9 265.074 1061.11 265.541C1060.17 266.066 1059.1 266.322 1058.03 266.281C1056.59 266.353 1055.18 265.937 1054.01 265.101C1053.51 264.708 1053.09 264.219 1052.78 263.663C1052.46 263.107 1052.26 262.494 1052.19 261.861H1055.57C1055.67 262.321 1055.93 262.661 1056.31 262.921C1056.75 263.196 1057.27 263.329 1057.79 263.301C1058.49 263.301 1059.07 263.101 1059.51 262.701C1059.93 262.281 1060.15 261.641 1060.15 260.741V258.781C1059.87 259.434 1059.39 259.986 1058.79 260.361C1058.13 260.758 1057.36 260.959 1056.59 260.941C1055.71 260.956 1054.84 260.71 1054.09 260.233C1053.35 259.756 1052.76 259.07 1052.41 258.261C1051.97 257.31 1051.75 256.27 1051.77 255.221C1051.77 254.041 1051.99 253.021 1052.41 252.161C1052.77 251.354 1053.35 250.671 1054.1 250.197C1054.84 249.724 1055.71 249.481 1056.59 249.501V249.5ZM1057.69 252.501C1057.36 252.486 1057.03 252.543 1056.73 252.667C1056.43 252.791 1056.15 252.98 1055.93 253.221C1055.47 253.701 1055.25 254.361 1055.25 255.221C1055.25 256.081 1055.47 256.741 1055.93 257.221C1056.15 257.462 1056.43 257.651 1056.73 257.775C1057.03 257.899 1057.36 257.956 1057.69 257.941C1058.02 257.952 1058.35 257.892 1058.66 257.765C1058.97 257.637 1059.24 257.445 1059.47 257.201C1059.94 256.654 1060.19 255.944 1060.15 255.221C1060.19 254.491 1059.95 253.774 1059.47 253.221C1059.24 252.983 1058.96 252.796 1058.66 252.672C1058.35 252.548 1058.02 252.49 1057.69 252.501V252.501ZM1076.51 254.921C1076.5 255.23 1076.47 255.538 1076.41 255.841H1068.67C1068.71 256.681 1068.93 257.281 1069.31 257.641C1069.51 257.83 1069.74 257.977 1069.99 258.073C1070.25 258.17 1070.52 258.213 1070.79 258.201C1071.24 258.22 1071.68 258.086 1072.05 257.821C1072.38 257.581 1072.61 257.235 1072.71 256.841H1076.33C1076.19 257.611 1075.86 258.334 1075.37 258.941C1074.87 259.571 1074.22 260.071 1073.49 260.401C1072.69 260.769 1071.83 260.954 1070.95 260.941C1069.94 260.959 1068.94 260.718 1068.05 260.241C1067.2 259.797 1066.5 259.107 1066.05 258.261C1065.55 257.326 1065.3 256.279 1065.33 255.221C1065.3 254.156 1065.55 253.102 1066.05 252.161C1066.51 251.324 1067.19 250.637 1068.03 250.181C1068.93 249.713 1069.94 249.479 1070.95 249.501C1071.97 249.477 1072.97 249.711 1073.87 250.181C1074.69 250.619 1075.37 251.278 1075.83 252.081C1076.3 252.953 1076.53 253.931 1076.51 254.921V254.921ZM1073.05 254.401C1073.07 253.661 1072.87 253.121 1072.47 252.741C1072.05 252.378 1071.51 252.186 1070.95 252.201C1070.38 252.181 1069.82 252.382 1069.39 252.761C1068.97 253.141 1068.75 253.681 1068.69 254.401H1073.05V254.401Z" fill="#231F20"/>
<path d="M1284.06 246.52C1285.67 246.463 1287.26 246.964 1288.54 247.94C1289.74 248.905 1290.55 250.268 1290.82 251.781H1287.2C1286.96 251.157 1286.53 250.62 1285.98 250.241C1285.39 249.857 1284.7 249.661 1284 249.681C1283.54 249.666 1283.08 249.757 1282.66 249.948C1282.24 250.139 1281.87 250.424 1281.58 250.781C1280.93 251.619 1280.6 252.662 1280.66 253.721C1280.66 254.941 1280.96 255.921 1281.58 256.641C1281.87 256.998 1282.24 257.283 1282.66 257.474C1283.08 257.664 1283.54 257.756 1284 257.741C1284.7 257.761 1285.39 257.565 1285.98 257.181C1286.53 256.804 1286.95 256.276 1287.2 255.661H1290.82C1290.54 257.216 1289.69 258.612 1288.45 259.583C1287.2 260.554 1285.64 261.03 1284.06 260.921C1282.79 260.952 1281.54 260.634 1280.44 260.001C1279.41 259.411 1278.57 258.527 1278.04 257.461C1277.45 256.304 1277.15 255.019 1277.18 253.721C1277.18 252.321 1277.46 251.081 1278.04 249.981C1278.58 248.914 1279.41 248.024 1280.44 247.421C1281.54 246.804 1282.79 246.493 1284.06 246.521V246.52ZM1303.34 254.921C1303.33 255.23 1303.3 255.538 1303.24 255.841H1295.5C1295.54 256.681 1295.76 257.281 1296.14 257.641C1296.34 257.83 1296.57 257.977 1296.82 258.073C1297.08 258.17 1297.35 258.213 1297.62 258.201C1298.07 258.22 1298.51 258.086 1298.88 257.821C1299.21 257.581 1299.44 257.235 1299.54 256.841H1303.16C1303.02 257.611 1302.69 258.334 1302.2 258.941C1301.7 259.571 1301.05 260.071 1300.32 260.401C1299.52 260.769 1298.66 260.954 1297.78 260.941C1296.77 260.959 1295.77 260.718 1294.88 260.241C1294.03 259.797 1293.33 259.107 1292.88 258.261C1292.38 257.326 1292.14 256.279 1292.16 255.221C1292.13 254.156 1292.38 253.102 1292.88 252.161C1293.34 251.324 1294.02 250.637 1294.86 250.181C1295.76 249.713 1296.76 249.479 1297.78 249.501C1298.8 249.477 1299.8 249.711 1300.7 250.181C1301.52 250.619 1302.2 251.278 1302.66 252.081C1303.13 252.953 1303.36 253.931 1303.34 254.921V254.921ZM1299.88 254.401C1299.9 253.661 1299.7 253.121 1299.3 252.741C1298.88 252.378 1298.34 252.186 1297.78 252.201C1297.21 252.181 1296.65 252.382 1296.22 252.761C1295.8 253.141 1295.58 253.681 1295.52 254.401H1299.88V254.401ZM1305.12 246H1308.54V260.801H1305.12V246ZM1321.5 254.921C1321.49 255.23 1321.46 255.538 1321.4 255.841H1313.66C1313.7 256.681 1313.92 257.281 1314.3 257.641C1314.5 257.83 1314.73 257.977 1314.98 258.073C1315.24 258.17 1315.51 258.213 1315.78 258.201C1316.23 258.22 1316.68 258.086 1317.04 257.821C1317.37 257.581 1317.6 257.235 1317.7 256.841H1321.32C1321.18 257.611 1320.85 258.334 1320.36 258.941C1319.86 259.571 1319.21 260.071 1318.48 260.401C1317.68 260.769 1316.82 260.954 1315.94 260.941C1314.93 260.959 1313.93 260.718 1313.04 260.241C1312.19 259.797 1311.49 259.107 1311.04 258.261C1310.54 257.326 1310.29 256.279 1310.32 255.221C1310.29 254.156 1310.54 253.102 1311.04 252.161C1311.5 251.324 1312.18 250.637 1313.02 250.181C1313.92 249.713 1314.93 249.479 1315.94 249.501C1316.96 249.477 1317.96 249.711 1318.86 250.181C1319.68 250.619 1320.36 251.278 1320.82 252.081C1321.29 252.953 1321.52 253.931 1321.5 254.921V254.921ZM1318.04 254.401C1318.06 253.661 1317.86 253.121 1317.46 252.741C1317.04 252.378 1316.5 252.186 1315.94 252.201C1315.37 252.181 1314.81 252.382 1314.38 252.761C1313.96 253.141 1313.74 253.681 1313.68 254.401H1318.04V254.401ZM1330.24 249.5C1331.16 249.5 1331.98 249.72 1332.72 250.18C1333.46 250.677 1334.05 251.36 1334.44 252.161C1334.88 253.12 1335.09 254.167 1335.06 255.221C1335.06 256.381 1334.86 257.401 1334.44 258.261C1334.18 258.835 1333.8 259.348 1333.32 259.769C1332.85 260.189 1332.3 260.508 1331.7 260.705C1331.1 260.902 1330.46 260.973 1329.83 260.914C1329.2 260.855 1328.59 260.667 1328.04 260.361C1327.44 259.99 1326.97 259.436 1326.7 258.781V260.801H1323.28V246.001H1326.7V251.661C1326.97 251.006 1327.44 250.452 1328.04 250.081C1328.7 249.684 1329.47 249.483 1330.24 249.501V249.5ZM1329.14 252.501C1328.81 252.489 1328.49 252.546 1328.18 252.671C1327.88 252.795 1327.61 252.982 1327.38 253.221C1326.9 253.772 1326.65 254.489 1326.68 255.221C1326.65 255.947 1326.9 256.657 1327.38 257.201C1327.6 257.446 1327.87 257.64 1328.18 257.768C1328.48 257.896 1328.81 257.955 1329.14 257.941C1329.47 257.954 1329.8 257.896 1330.11 257.772C1330.41 257.648 1330.69 257.46 1330.92 257.221C1331.39 256.664 1331.62 255.948 1331.58 255.221C1331.62 254.494 1331.39 253.778 1330.92 253.221C1330.69 252.982 1330.41 252.794 1330.11 252.67C1329.8 252.546 1329.47 252.488 1329.14 252.501V252.501ZM1340.26 251.741C1340.67 251.072 1341.24 250.516 1341.92 250.121C1342.58 249.721 1343.32 249.521 1344.1 249.521V253.181H1343.12C1342.38 253.139 1341.64 253.343 1341.02 253.761C1340.52 254.141 1340.26 254.801 1340.26 255.721V260.801H1336.84V249.641H1340.26V251.741ZM1349.78 249.5C1350.64 249.5 1351.36 249.7 1351.98 250.08C1352.58 250.456 1353.06 251.007 1353.34 251.661V249.641H1356.74V260.801H1353.34V258.781C1353.06 259.434 1352.58 259.986 1351.98 260.361C1351.32 260.758 1350.55 260.959 1349.78 260.941C1348.9 260.956 1348.03 260.71 1347.28 260.233C1346.54 259.756 1345.96 259.07 1345.6 258.261C1345.16 257.31 1344.94 256.27 1344.96 255.221C1344.96 254.041 1345.18 253.021 1345.6 252.161C1345.96 251.354 1346.54 250.671 1347.29 250.197C1348.03 249.724 1348.9 249.481 1349.78 249.501V249.5ZM1350.88 252.501C1350.55 252.486 1350.22 252.543 1349.92 252.667C1349.62 252.791 1349.34 252.98 1349.12 253.221C1348.66 253.701 1348.44 254.361 1348.44 255.221C1348.44 256.081 1348.66 256.741 1349.12 257.221C1349.34 257.462 1349.62 257.651 1349.92 257.775C1350.22 257.899 1350.55 257.956 1350.88 257.941C1351.21 257.952 1351.54 257.892 1351.85 257.765C1352.16 257.637 1352.43 257.445 1352.66 257.201C1353.13 256.654 1353.38 255.944 1353.34 255.221C1353.38 254.491 1353.14 253.774 1352.66 253.221C1352.43 252.983 1352.15 252.796 1351.85 252.672C1351.54 252.548 1351.21 252.49 1350.88 252.501V252.501ZM1365.42 257.861V260.801H1363.88C1362.78 260.873 1361.69 260.522 1360.84 259.821C1360.1 259.181 1359.74 258.121 1359.74 256.621V252.521H1358.24V249.641H1359.74V246.901H1363.16V249.641H1365.4V252.521H1363.16V256.681C1363.16 257.121 1363.26 257.421 1363.44 257.601C1363.6 257.781 1363.92 257.861 1364.34 257.861H1365.42V257.861ZM1377.94 254.921C1377.93 255.23 1377.9 255.538 1377.84 255.841H1370.1C1370.14 256.681 1370.36 257.281 1370.74 257.641C1370.94 257.83 1371.17 257.977 1371.42 258.073C1371.68 258.17 1371.95 258.213 1372.22 258.201C1372.67 258.22 1373.11 258.086 1373.48 257.821C1373.81 257.581 1374.04 257.235 1374.14 256.841H1377.76C1377.62 257.611 1377.29 258.334 1376.8 258.941C1376.3 259.571 1375.65 260.071 1374.92 260.401C1374.12 260.769 1373.26 260.954 1372.38 260.941C1371.37 260.959 1370.37 260.718 1369.48 260.241C1368.63 259.797 1367.93 259.107 1367.48 258.261C1366.98 257.326 1366.73 256.279 1366.76 255.221C1366.73 254.156 1366.98 253.102 1367.48 252.161C1367.94 251.324 1368.62 250.637 1369.46 250.181C1370.36 249.713 1371.37 249.479 1372.38 249.501C1373.4 249.477 1374.4 249.711 1375.3 250.181C1376.12 250.619 1376.8 251.278 1377.26 252.081C1377.73 252.953 1377.96 253.931 1377.94 254.921V254.921ZM1374.48 254.401C1374.5 253.661 1374.3 253.121 1373.9 252.741C1373.48 252.378 1372.94 252.186 1372.38 252.201C1371.81 252.181 1371.25 252.382 1370.82 252.761C1370.4 253.141 1370.18 253.681 1370.12 254.401H1374.48V254.401Z" fill="#231F20"/>
<path d="M733.573 171.08C748.413 160.51 755.833 152.04 755.833 145.81C755.833 141.96 754.153 140.07 750.863 140.07C748.973 140.07 747.643 140.7 746.803 142.03C745.755 143.883 745.245 145.993 745.333 148.12H733.643C733.923 142.1 735.743 137.55 739.103 134.54C742.618 131.462 747.173 129.835 751.843 129.99C757.233 129.99 761.293 131.32 764.023 134.05C765.375 135.449 766.431 137.106 767.128 138.922C767.826 140.738 768.15 142.676 768.083 144.62C767.955 149.815 765.997 154.798 762.553 158.69C758.848 163.318 754.372 167.272 749.323 170.38H768.853V180.04H733.573V171.08V171.08ZM1039.29 128.94C1042.72 128.94 1045.73 129.57 1048.18 130.69C1050.48 131.775 1052.44 133.47 1053.85 135.59C1055.11 137.69 1055.74 140.07 1055.74 142.66C1055.86 145.458 1054.99 148.209 1053.29 150.43C1051.69 152.34 1049.49 153.649 1047.06 154.14V154.49C1053.43 156.52 1056.65 160.51 1056.65 166.46C1056.72 169.114 1056.04 171.734 1054.69 174.02C1053.35 176.272 1051.38 178.076 1049.02 179.2C1046.19 180.524 1043.1 181.172 1039.99 181.09C1035.12 181.356 1030.33 179.865 1026.48 176.89C1023.12 174.09 1021.3 169.82 1021.02 164.08H1032.71C1032.78 166.25 1033.41 168 1034.53 169.26C1035.65 170.52 1037.26 171.15 1039.43 171.15C1040.18 171.194 1040.94 171.08 1041.65 170.815C1042.36 170.55 1043.01 170.14 1043.56 169.61C1044.55 168.525 1045.08 167.092 1045.03 165.62C1045.03 161.56 1042.09 159.53 1036.21 159.53H1033.97V149.8H1036.14C1041.39 149.87 1044.05 147.98 1044.05 144.13C1044.05 142.45 1043.63 141.12 1042.72 140.21C1042.22 139.751 1041.63 139.396 1041 139.167C1040.36 138.939 1039.68 138.841 1039.01 138.88C1038.26 138.846 1037.51 138.979 1036.82 139.27C1036.13 139.56 1035.51 140.001 1035.02 140.56C1033.98 141.885 1033.4 143.502 1033.34 145.18H1021.65C1021.61 142.947 1022.03 140.729 1022.87 138.66C1023.71 136.591 1024.96 134.714 1026.55 133.14C1030.1 130.156 1034.66 128.652 1039.29 128.94V128.94ZM1304.05 171.5V161.49L1326.66 130.48H1339.54V161.07H1345.49V171.5H1339.54V180.6H1327.43V171.5H1304.05V171.5ZM1328.41 144.34L1316.23 161.07H1328.41V144.34Z" fill="#231F20"/>
<path d="M567.145 76.0448C567.145 76.0448 618.355 40.145 684.185 80.185" stroke="#231F20" stroke-width="1.5" stroke-miterlimit="2" stroke-linecap="round"/>
<path d="M675.97 68.3364C678.271 70.3096 685.377 76.0745 685.038 79.8753C684.774 82.8333 677.982 82.7124 668.913 78.5569" stroke="#231F20" stroke-width="1.49452" stroke-miterlimit="2" stroke-linecap="round"/>
<path d="M933.427 214.878C937.001 212.006 943.957 203.758 948.287 207.424C951.728 210.336 947.369 220.503 944.29 225.222" stroke="#231F20" stroke-width="1.49467" stroke-miterlimit="2" stroke-linecap="round"/>
<path d="M838.477 212.42C855.717 234.06 914.417 257.22 948.297 207.42" stroke="#231F20" stroke-width="1.5" stroke-miterlimit="2" stroke-linecap="round"/>
<path d="M1242.03 80.3134C1245.01 83.7963 1253.47 90.4923 1249.95 94.9346C1247.14 98.4644 1236.84 94.4226 1232.03 91.4918" stroke="#231F20" stroke-width="1.49465" stroke-miterlimit="2" stroke-linecap="round"/>
<path d="M1120.31 92.2291C1120.31 92.2291 1187.79 46.7392 1249.79 94.3192" stroke="#231F20" stroke-width="1.5" stroke-miterlimit="2" stroke-linecap="round"/>
<path d="M2.30688 72.614C2.30688 72.614 120.137 305.864 358.137 175.864" stroke="#231F20" stroke-width="1.5" stroke-miterlimit="2" stroke-linecap="round"/>
<path d="M152.252 195.175C156.462 198.849 163.962 204.294 162.622 207.843C161.702 210.276 154.242 210.423 144.811 207.947M341.57 175.198C347.101 174.407 356.122 172.278 357.936 175.61C359.179 177.895 354.421 183.644 346.389 189.173" stroke="#231F20" stroke-width="1.49856" stroke-miterlimit="2" stroke-linecap="round"/>
<path d="M1451.42 202.76C1485.64 215.41 1546.57 229.72 1621.55 211.91C1686.08 196.58 1761.02 157.46 1838.3 73" stroke="#231F20" stroke-width="1.5" stroke-miterlimit="2" stroke-linecap="round"/>
<path d="M1605.96 206.504C1610.51 207.139 1621.28 206.553 1621.58 212.219C1621.81 216.721 1611.42 220.513 1605.87 221.503" stroke="#231F20" stroke-width="1.49466" stroke-miterlimit="2" stroke-linecap="round"/>
<path d="M1439.18 128.807C1441.89 128.807 1444.08 126.613 1444.08 123.907C1444.08 121.2 1441.89 119.006 1439.18 119.006C1436.47 119.006 1434.28 121.2 1434.28 123.907C1434.28 126.613 1436.47 128.807 1439.18 128.807Z" stroke="#231F20" stroke-width="1.49874" stroke-miterlimit="2" stroke-linecap="round"/>
<rect x="393" y="237" width="126" height="41" fill="white"/>
<rect x="705" y="236" width="126" height="41" fill="white"/>
<rect x="981" y="241" width="126" height="41" fill="white"/>
<rect x="1265" y="233" width="126" height="41" fill="white"/>
</g>
<defs>
<clipPath id="clip0_1_2">
<rect width="1840" height="267" fill="white"/>
</clipPath>
</defs>
</svg>
